<svg width="62" height="96" viewBox="0 0 62 96" fill="none" xmlns="http://www.w3.org/2000/svg">
<path d="M29.989 0.0137634C40.3862 -0.233789 50.7836 2.73687 56.9724 18.5802C57.6326 20.3959 58.7548 26.8989 57.9626 38.3849C59.778 36.2394 62.8147 34.3742 60.4382 44.0782C59.9431 46.4716 59.151 52.5947 59.9431 57.9415C60.7351 63.288 59.4475 64.7896 58.7048 64.8722C57.1369 65.2019 54.0511 64.5743 54.2488 59.4268C53.9184 60.9127 52.7138 64.4766 50.5359 66.8526C52.6814 69.2457 56.9224 75.3198 56.7244 80.4688C56.5259 85.6175 52.3517 90.7008 50.2888 92.5987C47.2352 94.9917 38.5042 98.4897 28.0085 93.3409C17.5136 88.1923 16.7038 79.9741 17.6111 76.5079C18.0237 74.6925 18.2051 70.0713 15.6306 66.1104C12.4127 61.1598 11.6704 62.6442 9.69019 57.9415C9.19522 60.9115 8.9964 63.1888 7.2146 64.377C5.97676 65.3669 3.5013 65.8617 3.99585 61.4073C3.74848 59.1795 1.76815 58.4359 2.01538 54.4757C2.09795 52.6604 2.06528 48.6824 1.27319 47.296C0.282798 45.562 -2.93442 32.4436 7.2146 36.1563C6.55449 31.0404 5.92772 19.5215 8.69995 14.3722C12.1656 7.9359 19.5921 0.261557 29.989 0.0137634ZM5.23413 54.7227C4.90405 54.3927 4.34295 54.0797 4.73901 55.4659C5.13485 56.8525 4.90402 59.8392 4.73901 61.1593C4.9041 62.3969 5.48151 64.3267 6.47144 62.1495C7.7092 59.4264 7.70921 56.7037 6.96655 56.4561C6.37251 56.2577 5.56415 55.2178 5.23413 54.7227ZM56.4783 52.9893C55.7356 52.2467 58.2112 61.9014 58.4587 59.921C58.6566 58.3365 57.2209 54.6396 56.4783 52.9893Z" fill="#BDCFAA"/>
<path d="M21.5727 78.2401C22.3154 70.3184 32.3825 66.3575 36.4259 66.6051C41.6245 65.5697 52.7644 70.0708 54.2497 79.4778C55.438 87.0034 48.8035 91.0303 45.3378 92.103C35.9308 94.0834 21.0777 89.875 21.5727 78.2401Z" fill="#7D9169"/>
<circle cx="36.8857" cy="68.0764" r="0.742658" fill="#D9D9D9"/>
<circle cx="37.3808" cy="70.5519" r="0.742658" fill="#D9D9D9"/>
<circle cx="38.8662" cy="69.0666" r="0.742658" fill="#D9D9D9"/>
<circle cx="34.9053" cy="68.0764" r="0.742658" fill="#D9D9D9"/>
<circle cx="35.4004" cy="70.0568" r="0.742658" fill="#D9D9D9"/>
<circle cx="35.4004" cy="72.0372" r="0.742658" fill="#D9D9D9"/>
<circle cx="39.3612" cy="74.0177" r="0.742658" fill="#D9D9D9"/>
<circle cx="36.3906" cy="74.5128" r="0.742658" fill="#D9D9D9"/>
<circle cx="36.3906" cy="77.4834" r="0.742658" fill="#D9D9D9"/>
<circle cx="39.8563" cy="76.9883" r="0.742658" fill="#D9D9D9"/>
<circle cx="39.8563" cy="80.454" r="0.742658" fill="#D9D9D9"/>
<circle cx="36.3906" cy="80.9491" r="0.742658" fill="#D9D9D9"/>
<circle cx="34.4101" cy="79.4638" r="0.742658" fill="#D9D9D9"/>
<circle cx="35.4004" cy="82.9296" r="0.742658" fill="#D9D9D9"/>
<circle cx="33.42" cy="81.4442" r="0.742658" fill="#D9D9D9"/>
<circle cx="31.4396" cy="79.9589" r="0.742658" fill="#D9D9D9"/>
<circle cx="32.9249" cy="83.4247" r="0.742658" fill="#D9D9D9"/>
<circle cx="30.9444" cy="81.9393" r="0.742658" fill="#D9D9D9"/>
<circle cx="28.9641" cy="80.454" r="0.742658" fill="#D9D9D9"/>
<circle cx="28.9641" cy="82.9296" r="0.742658" fill="#D9D9D9"/>
<circle cx="30.9444" cy="84.4149" r="0.742658" fill="#D9D9D9"/>
<circle cx="26.9836" cy="81.9393" r="0.742658" fill="#D9D9D9"/>
<circle cx="27.4787" cy="84.91" r="0.742658" fill="#D9D9D9"/>
<circle cx="25.4983" cy="83.9198" r="0.742658" fill="#D9D9D9"/>
<circle cx="25.9934" cy="86.3953" r="0.742658" fill="#D9D9D9"/>
<circle cx="23.5179" cy="83.4247" r="0.742658" fill="#D9D9D9"/>
<circle cx="41.8368" cy="78.4736" r="0.742658" fill="#D9D9D9"/>
<circle cx="42.827" cy="75.9981" r="0.742658" fill="#D9D9D9"/>
<circle cx="44.3122" cy="77.9785" r="0.742658" fill="#D9D9D9"/>
<circle cx="45.3025" cy="75.9981" r="0.742658" fill="#D9D9D9"/>
<circle cx="45.7976" cy="79.4638" r="0.742658" fill="#D9D9D9"/>
<circle cx="47.2829" cy="77.4834" r="0.742658" fill="#D9D9D9"/>
<circle cx="47.7781" cy="75.503" r="0.742658" fill="#D9D9D9"/>
<circle cx="48.7683" cy="78.9687" r="0.742658" fill="#D9D9D9"/>
<circle cx="49.7584" cy="76.9883" r="0.742658" fill="#D9D9D9"/>
<circle cx="50.2535" cy="75.0079" r="0.742658" fill="#D9D9D9"/>
<circle cx="52.234" cy="75.9981" r="0.742658" fill="#D9D9D9"/>
<circle cx="51.7389" cy="78.4736" r="0.742658" fill="#D9D9D9"/>
<circle cx="43.3221" cy="79.9589" r="0.742658" fill="#D9D9D9"/>
<circle cx="40.8465" cy="82.9296" r="0.742658" fill="#D9D9D9"/>
<circle cx="36.8857" cy="84.91" r="0.742658" fill="#D9D9D9"/>
<circle cx="37.3808" cy="87.8806" r="0.742658" fill="#D9D9D9"/>
<circle cx="40.8465" cy="87.3855" r="0.742658" fill="#D9D9D9"/>
<circle cx="41.8368" cy="89.861" r="0.742658" fill="#D9D9D9"/>
<circle cx="37.876" cy="90.8512" r="0.742658" fill="#D9D9D9"/>
<circle cx="39.3612" cy="71.5421" r="0.742658" fill="#D9D9D9"/>
<circle cx="37.876" cy="73.0275" r="0.742658" fill="#D9D9D9"/>
<circle cx="37.876" cy="75.9981" r="0.742658" fill="#D9D9D9"/>
<circle cx="37.876" cy="78.9687" r="0.742658" fill="#D9D9D9"/>
<circle cx="38.3711" cy="82.4345" r="0.742658" fill="#D9D9D9"/>
<circle cx="38.8662" cy="85.9002" r="0.742658" fill="#D9D9D9"/>
<circle cx="39.3612" cy="89.366" r="0.742658" fill="#D9D9D9"/>
<circle cx="39.8563" cy="91.8415" r="0.742658" fill="#D9D9D9"/>
</svg>
