<svg width="121" height="64" viewBox="0 0 121 64" fill="none" xmlns="http://www.w3.org/2000/svg">
<path d="M96.6843 16.3024C97.0546 16.7497 97.1526 17.1367 97.33 17.4322C96.6873 17.8771 95.8812 18.3307 94.9088 18.8849C96.3615 19.4279 99.9771 21.5643 101.527 25.1799C103.948 25.4489 109.339 27.1491 112.18 31.7977C112.18 26.3743 107.822 25.0185 102.818 18.8849C101.139 17.5936 97.9804 16.5714 96.6843 16.3024Z" fill="#BDCFAA"/>
<path d="M101.527 25.1799C99.977 21.5643 96.3615 19.2664 94.9088 18.7235C94.7517 18.813 94.5903 18.9503 94.4246 19.0463C94.7474 19.8194 96.1355 22.0955 98.4598 24.4198C101.05 27.0101 105.821 33.9626 107.283 41.045C107.105 40.0765 108.951 38.9467 109.758 40.3994C110.404 41.5615 111.211 41.6368 111.534 41.5292C112.954 42.0457 112.987 39.7537 113.794 38.1396C115.214 36.5901 112.825 34.1044 112.18 31.6832C109.339 27.0347 103.948 25.4489 101.527 25.1799Z" fill="#D9E9C7"/>
<path d="M86.4092 8.3027C87.8296 9.85223 88.7227 10.5624 88.9917 10.7238C92.7196 12.4366 95.2486 14.7849 96.5634 16.3732C97.8596 16.6422 100.871 17.503 102.55 18.7943C100.484 16.47 95.0177 12.4455 92.5427 10.7238C92.0262 9.04519 90.283 8.41031 89.476 8.3027C89.3684 8.03368 88.0878 6.91457 83.8266 4.59027C79.5654 2.26598 77.3873 2.11533 76.8309 2.33054C81.3057 4.16034 84.8426 6.81073 86.4092 8.3027Z" fill="#D9E9C7"/>
<path d="M20.499 21.3061L24.1896 18.1829C24.1358 17.8601 23.6086 17.4082 21.9299 18.1829C20.2512 18.9577 19.1859 18.8286 18.8631 18.6671C18.1099 18.2905 16.4638 18.0134 16.4638 19.0464C16.4638 20.3377 16.2806 20.4427 15.9577 20.6041C15.6995 20.7332 15.4197 20.9807 15.3121 21.0883C14.6665 21.9922 14.1822 22.2182 14.0208 22.2182C11.3091 22.3473 10.3084 23.8861 10.147 24.6393C8.74812 27.0604 5.62753 32.9357 4.33626 37.0678C2.72216 42.2329 1.91509 44.6541 2.39933 49.0121C4.33625 46.817 6.00414 44.3313 6.59598 43.3628C7.11249 37.4229 9.28614 33.5706 10.3084 32.387L11.7611 31.9027C13.2138 29.3202 13.8594 25.4464 15.9577 23.348C17.6364 21.6694 19.692 21.3599 20.499 21.3061Z" fill="#A3BC88"/>
<path d="M106.853 44.2262L107.66 43.5806C107.59 42.7229 107.461 41.8595 107.283 40.998C107.105 40.0296 108.951 38.8997 109.758 40.3524C110.404 41.5145 111.211 41.5899 111.534 41.4823C112.954 41.9988 112.987 39.7067 113.794 38.0927C115.731 39.6422 116.43 44.6566 116.538 46.9702C118.313 49.8755 117.829 50.6826 119.443 52.7809C120.734 54.4596 119.551 54.8792 118.797 54.8792C115.892 55.8061 109.113 58.3949 105.239 61.3356C100.397 65.0115 93.6175 63.1111 87.6454 63.2725C82.8676 63.4017 81.6732 59.5845 81.6732 57.6598C83.6736 54.6975 84.8665 49.3724 85.2242 46.9702L87.8068 49.0685C88.9689 47.9063 88.7214 46.3245 88.4524 45.6789L89.4209 45.8403C90.2279 47.6158 92.6491 49.2299 94.2632 47.6158C95.5544 46.3245 97.3837 46.9702 98.137 47.4544C100.397 49.8755 100.074 49.0685 101.365 49.0685C102.398 49.0685 102.764 48.5305 102.818 48.2614C105.013 46.9702 107.068 47.7234 107.822 48.2614C106.918 47.0993 106.799 45.0871 106.853 44.2262Z" fill="#BDCFAA"/>
<path d="M40.878 20.0078C42.4275 20.0078 44.28 21.2523 45.0332 21.7903C45.3022 22.0055 46.2922 22.4682 48.1 22.5973C49.9078 22.7265 50.4673 23.6196 50.5211 24.05C50.6287 24.4266 51.305 24.9792 52.9837 24.8501C54.6624 24.7209 55.471 26.6864 55.6862 27.601C55.9552 28.1929 57.1678 28.9939 58.5916 30.0222C61.497 32.1205 67.1877 35.5031 69.7703 39.2155C71.897 37.6964 76.2327 34.4134 80.5974 30.6608C82.4162 29.097 84.2401 27.4517 85.9113 25.8185C89.5718 22.2412 92.4685 20.3924 94.6274 19.1413C94.7931 19.0453 94.9545 18.9527 95.1116 18.8632C96.084 18.309 96.8901 17.8701 97.5327 17.4252C97.3554 17.1297 97.0814 16.7426 96.7111 16.2953C95.3963 14.7071 92.8673 12.3588 89.1394 10.646C88.8704 10.4846 87.9773 9.77441 86.5569 8.22488C84.9903 6.73291 81.4534 4.08252 76.9786 2.25272C74.9987 1.44308 72.8351 0.794099 70.5773 0.477222C69.5551 0.315813 66.5098 0.0898393 62.5069 0.477222C58.5039 0.864605 55.9967 0.531029 55.2434 0.315818C54.1136 -0.00700135 51.0145 -0.362102 47.6572 0.800046C47.2805 0.961452 46.2367 1.28426 45.0746 1.28426C43.622 1.28426 39.5867 1.76849 36.1971 3.7054C33.4854 5.25494 30.225 6.61078 28.9337 7.09501C27.1582 7.68684 22.4128 10.3555 17.635 16.2953C16.6128 17.5328 13.9226 20.5566 11.3401 22.7517C10.802 23.1284 9.79052 24.1076 10.0488 25.0115C10.2102 24.2582 11.2109 22.7194 13.9226 22.5903C14.084 22.5903 14.5682 22.3644 15.2139 21.4605C15.3215 21.3529 15.6012 21.1054 15.8595 20.9762C16.1823 20.8148 16.5052 20.492 16.5052 19.2007C16.5052 18.1677 18.0116 18.6627 18.7649 19.0393C19.0877 19.2007 20.153 19.3298 21.8317 18.5551C23.5103 17.7803 24.0376 18.2323 24.0914 18.5551C27.0613 19.0716 28.8799 18.3399 29.4179 17.9095C30.8383 17.393 31.8391 17.3714 32.1619 17.4252C32.2695 17.748 32.7752 18.3614 33.9374 18.2323C35.0995 18.1031 36.2509 18.3937 36.6813 18.5551C37.4346 19.0393 39.3285 20.0078 40.878 20.0078Z" fill="#BDCFAA"/>
<path d="M40.6752 26.7941C41.9665 23.695 44.2262 22.0594 45.1947 21.629C44.4414 21.0909 42.3909 19.7121 40.8414 19.7121C39.2919 19.7121 37.398 18.7437 36.6448 18.2594C36.2143 18.098 35.0629 17.8075 33.9008 17.9366C32.7387 18.0658 32.2329 17.4524 32.1253 17.1296C31.8025 17.0758 30.8017 17.0973 29.3813 17.6138C28.8433 18.0442 27.0248 18.7759 24.0548 18.2594L20.3424 21.1648C19.5354 21.2186 17.5016 21.7459 15.8229 23.4246C13.7246 25.5229 13.079 29.3967 11.6263 31.9793L10.1736 32.4635C9.15134 33.6472 6.97769 37.4995 6.46118 43.4394C5.86934 44.4078 4.20145 46.8935 2.26453 49.0887C0.327617 51.2839 -0.0490057 53.4467 0.00479746 54.2538C11.4649 57.3206 10.335 54.512 21.9565 58.1276C28.8971 60.7102 30.076 60.5825 31.6363 60.2058C35.5101 55.6864 36.1557 45.1948 35.6715 39.5454C35.2841 35.026 37.2318 30.8831 38.2541 29.3766C39.8036 28.3436 40.5676 27.2245 40.6752 26.7941Z" fill="#D9E9C7"/>
<path d="M94.5908 19.1414C92.432 20.3925 89.5352 22.2412 85.8747 25.8186C84.2035 27.4518 82.3796 29.0971 80.5608 30.6608C81.4748 33.3725 83.3005 36.7406 84.0992 38.0857H85.5519C85.4981 39.5922 85.4873 42.7988 85.8747 43.5736C86.2621 44.3484 86.1437 44.7573 86.0361 44.8649C85.3904 45.3814 85.229 46.479 85.229 46.9632L87.8116 49.0615C88.9737 47.8994 88.7262 46.3176 88.4572 45.6719L89.4257 45.8333C90.2327 47.6088 92.6539 49.2229 94.268 47.6088C95.5592 46.3176 97.3886 46.9632 98.1418 47.4474C100.402 49.8686 100.079 49.0615 101.37 49.0615C102.403 49.0615 102.769 48.5235 102.823 48.2545C105.018 46.9632 107.073 47.7164 107.826 48.2545C106.922 47.0923 106.804 45.0801 106.858 44.2192L107.665 43.5736C107.595 42.7159 107.466 41.8525 107.288 40.991C105.826 33.9087 101.055 26.9562 98.4646 24.3659C96.1403 22.0416 94.9136 19.9144 94.5908 19.1414Z" fill="#D9E9C7"/>
<path d="M52.9472 24.8501C54.6258 24.721 55.4759 26.518 55.6911 27.4327C55.9602 28.0245 57.1727 28.8255 58.5965 29.8538C63.2726 32.6048 67.9534 36.4786 69.7338 39.2156C71.8605 37.6965 76.1961 34.4135 80.5608 30.6608C81.2643 32.434 82.9568 36.4014 84.0992 38.0857H85.5519C85.4981 39.5922 85.4873 42.7988 85.8747 43.5736C86.2621 44.3484 86.1437 44.7573 86.0361 44.8649C85.3905 45.3814 85.2291 46.479 85.2291 46.9632C84.8713 49.3654 83.6784 54.6905 81.6781 57.6528C81.5727 57.8088 81.4651 57.9583 81.3553 58.1005C80.7634 59.4993 80.0317 62.5554 81.8395 63.5884C80.9786 63.8036 78.9987 64.1695 77.9657 63.9112C76.9326 63.653 74.7375 62.7275 73.769 62.2971C73.231 62.0819 71.5416 61.716 69.0881 61.9743C66.0214 62.2971 64.0844 62.2971 62.7932 62.1357C61.7601 62.0066 60.2106 62.7275 59.565 63.1042C59.0807 63.3194 57.4021 63.4593 54.5613 62.2971C54.2385 62.4047 53.3668 62.5554 52.463 62.2971C51.5591 62.0389 50.257 61.1134 49.719 60.683C49.6652 58.7461 49.8481 53.9684 51.0103 50.3528C50.8489 48.9539 50.7197 45.7365 51.4945 44.0578C52.0623 42.8276 52.2602 42.3891 52.3043 42.285L52.3015 42.2823C52.3159 42.2536 52.3203 42.2471 52.3043 42.285L53.5928 43.5736C53.539 41.1525 53.1409 35.7937 51.9787 33.7276C51.5483 31.3603 51.1394 26.2705 52.9472 24.8501Z" fill="#A3BC88"/>
</svg>
