<svg width="20" height="20" viewBox="0 0 20 20" fill="none" xmlns="http://www.w3.org/2000/svg">
<path d="M2.26765 0C0.901018 0 0 0.933382 0 2.16678C0 3.36684 0.867165 4.33252 2.20046 4.33252C3.63376 4.33252 4.53374 3.36684 4.5004 2.16678C4.5004 0.933382 3.63428 0 2.26765 0ZM15.0663 5.73363C12.7663 5.73363 11.3669 7.06651 10.8002 7.9999H10.7341L10.5336 6.03365H6.8342C6.86753 7.30038 6.93367 8.76712 6.93367 10.5005V20H11.1997V11.9662C11.1997 11.5662 11.233 11.1667 11.333 10.8667C11.6664 10.0667 12.3669 9.23277 13.5335 9.23277C15.1001 9.23277 15.7001 10.4667 15.7001 12.2668V20H20V11.7673C20 7.63373 17.8662 5.73363 15.0663 5.73363ZM0.101039 6.03365V20H4.36707V6.03365H0.101039Z" fill="#4D5557"/>
</svg>
