<svg width="423" height="386" viewBox="0 0 423 386" fill="none" xmlns="http://www.w3.org/2000/svg">
<path d="M261.117 0.0419922L264.91 1.30664L265.081 1.36328V4.81152L266.614 5.09082L266.819 5.12793V6.35059H268.874V11.7246H270.139V14.1611L272.372 14.8584L275.116 12.8779L275.222 12.8018L275.345 12.8447L278.979 14.1084L279.133 14.1621L279.146 14.3232L279.423 17.5L281.905 15.5703L282.016 15.4844L282.146 15.5332L285.939 16.9551L286.102 17.0166V19.1963L287.816 18.5371L287.962 18.4805L288.076 18.5869L290.289 20.6416L290.369 20.7158V21.8389H291.634V34.8535L291.538 34.9287L289.401 36.6055L286.778 52.6562H288.156V59.0039H285.743L285.347 61.1182L287.729 61.959C288.376 61.6156 289.409 61.259 290.553 61.2344C291.766 61.2083 293.115 61.5542 294.247 62.6865C296.353 64.7923 297.728 66.9711 298.203 67.8887L304.455 71.0156L304.572 71.0742L304.591 71.2041L304.73 72.1865L309.206 74.6553L309.365 74.7432L309.33 74.9229L307.596 83.751L307.28 91.1631L307.277 91.2256L307.246 91.2793L304.13 96.5742L304.749 100.438L304.783 100.652L304.575 100.716L300.636 101.928L300.484 106.49L300.479 106.673L300.303 106.723L299.424 106.974L300.636 112.274L300.671 112.427L300.549 112.525L299.137 113.653L300.134 115.364L300.246 115.557L300.068 115.69L297.725 117.447L303.29 126.103L303.322 126.153L303.328 126.214L303.645 129.532L303.67 129.807H300.338L299.599 130.545L305.034 139.861L305.112 139.996L305.025 140.126L304.153 141.432L305.52 144.468L305.626 144.702L305.388 144.801L301.873 146.265L306.291 152.967L306.338 153.037L306.332 153.122L306.174 155.335L306.157 155.566H305.57L305.856 158.293L305.885 158.557L305.62 158.569L302.768 158.705L307.864 165.599L307.913 165.665V169.316H307.407C307.245 170.044 306.363 170.943 304.129 171.043L308.988 179.851L309.079 180.015L308.946 180.147L308.451 180.642L310.248 183.636L310.396 183.884L310.13 183.995L308.438 184.699L308.693 185.592L308.774 185.876L308.48 185.909L306.023 186.182L311.354 195.014L311.444 195.163L311.335 195.299L310.172 196.752L311.994 200.242L312.154 200.551L311.812 200.605L309.062 201.038L310.111 206.587L312.933 211.131L313.046 211.313L312.883 211.453L311.917 212.28L313.581 216.062L313.706 216.344L313.403 216.407L309.962 217.123L313.563 222.824L313.807 223.208H311.538L313.578 227.433L313.603 227.484V228.747L315.633 232.964L315.805 233.322H313.319L339.451 259.764L389.766 306.289L393.273 305.527L393.349 305.511L393.42 305.539L400.059 308.227L400.204 308.285L400.214 308.441L400.836 318.093L403.707 319.453L403.811 319.502L403.841 319.612L409.798 341.247L418.943 341.713L419.162 341.724L419.18 341.942L422.657 385.245L422.68 385.528L422.396 385.516L372.136 383.145L333.729 381.406L333.494 381.396L333.491 381.159L333.017 344.336L333.015 344.115L333.232 344.085L344.385 342.536L343.771 330.722L335.832 325.429L320.206 317.537L303.777 310.271L286.074 303.283L284.362 325.229L283.256 342.769V342.776L282.332 352.47L292.975 352.934L293.199 352.943L293.214 353.167L293.837 362.994L300.366 367.036L300.459 367.094L300.479 367.201L303.009 380.16L303.068 380.467L302.756 380.458L251.39 379.036L251.384 379.035L226.57 377.771L226.333 377.759V334.229L225.228 321.438L225.227 321.428V300.575L204.229 293.211L184.476 289.135L176.195 298.665L176.185 298.678L176.172 298.688L168.111 305.801L159.741 313.695L149.163 323.8L145.853 327.741L145.84 327.757L145.824 327.77L135.192 336.993L135.269 337.299L143.146 337.762L143.206 337.766L143.257 337.795L146.26 339.533L146.385 339.605V348.786L155.92 355.508L156.003 355.565L156.021 355.665L159.814 375.578L159.872 375.881L159.564 375.875L33.2812 373.347L33.2227 373.345L33.1709 373.318L25.9004 369.525L25.8887 369.519L22.4121 367.464L22.3828 367.446L22.3584 367.422L14.4561 359.204L14.4414 359.188L14.4287 359.17L7.63281 349.056L7.61914 349.035L7.60938 349.013L2.23633 336.212L2.22656 336.188L2.22168 336.165L0.00878906 325.26L0 325.215L0.00683594 325.17L2.2168 311.754V299.883L2.22949 299.844L5.39062 290.519L5.39648 290.503L5.40332 290.488L11.7256 277.688L11.7412 277.656L11.7637 277.631L20.457 267.99L20.4678 267.978L20.4805 267.967H20.4814L20.4824 267.965L20.5117 267.94C20.5321 267.923 20.5628 267.898 20.6025 267.864C20.6824 267.797 20.8004 267.696 20.9531 267.567C21.259 267.309 21.7044 266.935 22.2607 266.469C23.3735 265.537 24.9323 264.238 26.7158 262.773C30.282 259.844 34.751 256.245 38.3535 253.575C43.3188 249.895 49.9232 245.545 55.2832 242.117C57.9638 240.403 60.3347 238.918 62.0352 237.862C62.8853 237.334 63.5678 236.913 64.0381 236.624C64.2732 236.48 64.4559 236.368 64.5791 236.293C64.6406 236.255 64.6872 236.226 64.7188 236.207C64.7345 236.197 64.7469 236.19 64.7549 236.186C64.7588 236.183 64.7617 236.181 64.7637 236.18L64.7656 236.179L64.7666 236.178L64.7852 236.167L64.8057 236.159L77.291 231.26L77.3008 231.256L88.2061 227.463L88.2119 227.461L96.5879 224.774L103.384 222.562L103.391 222.56L103.398 222.558L113.198 220.029L113.205 220.027L113.26 220.271L113.206 220.027L122.372 217.973L122.381 217.971L122.39 217.97L126.489 217.339L131.389 216.391L131.401 216.389L131.413 216.388L138.347 215.756L155.862 211.022L173.556 205.021L173.558 205.02L196.081 197.668L195.208 194.902L195.159 194.746L195.282 194.639L196.266 193.777L194.422 192.855L194.622 192.613L197.469 189.166L195.283 187.271L195.047 187.067L195.299 186.882L200.894 182.758L200.277 182.582L200.129 182.54L200.101 182.388L199.626 179.859L199.622 179.836V177.655L199.695 177.582L202.363 174.913L200.96 173.51L200.754 173.305L200.988 173.132L207.316 168.461L206.544 168.02L206.449 167.965L206.425 167.858L205.95 165.804L205.897 165.572L206.125 165.507L207.01 165.254L206.922 164.814L204.666 163.762L204.366 163.622L204.582 163.371L207.524 159.964V158.362L207.612 158.287L211.627 154.866L209.532 153.471L209.344 153.345L209.45 153.145L210.653 150.888L210.238 150.056L210.158 149.896L210.282 149.769L216.497 143.402L214.797 142.749L214.598 142.672L214.643 142.463L215.116 140.251L215.142 140.133L215.249 140.079L216.018 139.694L215.956 139.446H215.162L215.124 139.434L214.176 139.118L214.005 139.061V137.682L214.065 137.611L218.755 132.164L218.727 132.15L218.588 132.081V129.137L220.255 127.47L219.421 126.218L219.321 126.069L219.43 125.927L224.564 119.235L224.501 119.043L222.925 118.9L222.72 118.882L222.699 118.677L222.541 117.096L222.531 117.001L222.587 116.924L223.804 115.251V114.904L223.215 114.787L223.014 114.747V112.555L223.072 112.485L228.846 105.618L228.73 104.93L226.184 104.031L225.916 103.938L226.043 103.684L226.988 101.792L225.923 101.674L225.566 101.634L226.648 99.4697V98.6348L226.722 98.5615L228.53 96.752L227.647 96.3105L227.793 96.0771L230.058 92.4521L229.567 91.9609L229.386 91.7793L229.571 91.6035L232.328 88.9912L230.096 87.7354L229.814 87.5771L230.037 87.3447L233.693 83.5361C233.572 83.3469 233.423 83.1182 233.282 82.9219C233.19 82.7924 233.105 82.6812 233.038 82.6045C233.009 82.5714 232.987 82.5495 232.973 82.5361C232.944 82.5256 232.918 82.5094 232.895 82.4893C232.853 82.4531 232.832 82.4118 232.821 82.3857C232.802 82.3375 232.801 82.2922 232.801 82.2734C232.801 82.2291 232.808 82.1809 232.815 82.1406C232.831 82.0543 232.861 81.9369 232.899 81.8018C232.977 81.5288 233.096 81.1543 233.232 80.7422C233.494 79.9519 233.824 79.011 234.061 78.3535L233.619 77.1748L233.575 77.0586L233.641 76.9541L235.116 74.5928C234.893 74.3673 234.618 74.0837 234.393 73.8389C234.256 73.69 234.132 73.5498 234.05 73.4453C234.011 73.3964 233.971 73.3413 233.945 73.292C233.937 73.2762 233.906 73.2169 233.907 73.1426C233.908 73.096 233.922 73.0179 233.99 72.9551C233.991 72.9539 233.993 72.9523 233.994 72.9512C234.01 72.9077 234.032 72.8387 234.057 72.7441C234.107 72.5484 234.168 72.2732 234.229 71.9619C234.35 71.3405 234.476 70.5925 234.555 70.0938L234.562 70.041L234.592 69.9961L236.963 66.3613L236.973 66.3457L236.985 66.332L238.25 64.9102L238.262 64.8965L238.275 64.8848L240.33 63.1465L240.399 63.0869H241.625L241.22 60.249L239.679 60.1094L239.486 60.0918L239.454 59.9014L238.506 54.2119L238.473 54.0137L238.66 53.9385L239.293 53.6855V49.6543H239.737L239.629 48.6816L239.166 48.5664L239.004 48.5254L238.979 48.3604L238.352 44.123L237.573 42.2559L237.562 42.2266L237.557 42.1943L236.939 37.7178L235.921 36.9902L235.826 36.9229L235.816 36.8076L235.681 35.1846L234.214 35.4521L233.924 35.5049L233.919 35.21L233.761 25.0957L233.758 24.8877L233.962 24.8467L234.56 24.7266L234.71 21.2881L234.723 20.9766L235.023 21.0566L237.062 21.6006L236.923 18.9414L236.915 18.8066L237.024 18.7266L239.395 16.9883L239.526 16.8916L239.667 16.9727L241.539 18.042L241.664 16.5371L241.674 16.4248L241.764 16.3574L243.66 14.9355L243.8 14.8301L243.946 14.9258L246.986 16.9014L247.345 16.7227L247.195 13.7256L247.186 13.5215L247.383 13.4707L251.65 12.3643L251.799 12.3262L251.9 12.4414L254.086 14.9189L257.024 11.7002L255.206 10.4414L255.103 10.3701L255.098 10.2451L254.94 5.97754L254.936 5.85742L255.027 5.7793L257.24 3.88281L257.311 3.82227H258.101V2.20996L258.199 2.13477L260.886 0.0810547L260.991 0L261.117 0.0419922ZM86.1797 259.537L80.332 260.801L80.3135 260.806L80.2949 260.812L76.1855 262.393L76.168 262.4L69.8467 265.403L69.8379 265.407L69.8301 265.411L62.876 269.362L62.8652 269.368L62.8564 269.375L56.541 273.794L50.3975 277.575L47.5674 278.834L47.5078 278.86L47.4688 278.912L46.0586 280.79L42.4424 284.093L42.4395 284.095L39.9248 286.452L38.3584 287.55L38.3291 287.57L38.3066 287.599L36.4209 289.954L31.5342 294.525L31.5195 294.539L31.5078 294.556L28.8203 298.032L28.8008 298.058L28.7881 298.087L26.5752 303.303L26.5684 303.319L26.5645 303.336L25.1416 308.71L25.1367 308.729L25.1348 308.75L24.6602 313.648L24.6582 313.673L24.6602 313.696L25.7666 325.392L25.7695 325.422L25.7793 325.45L27.1963 329.544H27.1973L28.4609 334.127L28.4648 334.14L28.4697 334.151L30.2031 338.566L31.1484 341.873L31.1543 341.889L32.5762 345.84L32.5977 345.898L32.6436 345.94L36.1211 349.101L36.1299 349.109L36.1387 349.116L39.9316 351.961L39.9707 351.989L40.0166 352.002C40.5568 352.149 41.8397 352.752 42.5547 353.943L42.6074 354.032L42.708 354.058L46.502 355.006L46.7051 355.057L46.79 354.865L63.0693 318.517L63.0791 318.495L63.085 318.472L63.71 315.811L76.1855 289.601L76.21 289.549V286.373L79.5098 276.787L86.4639 259.876L86.6455 259.437L86.1797 259.537Z" fill="#BDCFAA"/>
</svg>
