<svg width="366" height="358" viewBox="0 0 366 358" fill="none" xmlns="http://www.w3.org/2000/svg">
<path d="M70.395 1.78195C71.7044 0.098647 72.8891 -0.0888685 73.3178 0.0280428C72.7567 0.121567 72.6167 1.00256 72.6167 1.43136L74.1362 0.847379V1.43136C75.6326 0.402687 76.8646 1.23633 77.2934 1.78195C76.0776 1.59488 75.0721 2.63953 74.7211 3.18527L76.1235 4.238H77.2934L79.7485 6.10812L78.9301 6.57589L79.3979 7.51144C83.5135 12.7497 84.2306 19.7503 84.0747 22.5954L84.4253 24.3493L86.4135 25.5183L84.4253 25.9861C84.3473 25.7132 84.2382 25.7988 84.4253 28.3239C84.6124 30.8494 86.6863 33.5079 87.6997 34.5212L89.8042 33.3523L91.3247 35.6902L90.3891 37.2107L90.7397 38.7302L89.5708 37.7956C89.2203 38.2239 88.5194 39.0562 88.518 38.9646C88.518 38.8711 88.128 37.8347 87.9331 37.3278C87.2786 38.356 86.4139 38.1456 86.0629 37.9118C85.6342 36.8596 84.8706 35.2933 85.2446 37.4441C85.7121 40.1331 83.7237 41.4198 82.6713 42.3552C81.8295 43.1031 79.9821 41.7314 79.1635 40.9519V42.7058C80.4729 44.109 81.2686 47.5003 81.5024 49.0202L82.7885 49.7214L82.3208 51.8259C83.2952 52.2157 85.4308 53.1595 86.1792 53.8142C87.1149 54.6325 90.5059 55.2171 93.6626 54.6325C96.8193 54.048 97.5215 55.3344 101.614 56.5036C105.706 57.6732 105.94 62.8174 106.408 64.2204C106.782 65.344 107.187 71.5477 107.343 74.5095L107.823 80.8796C108.569 81.3068 109.296 81.6065 109.885 81.7048C111.568 81.9855 112.613 83.6918 112.925 84.5105L114.211 87.9011C114.562 88.3298 115.357 89.7491 115.731 91.9939C116.105 94.2382 117.291 95.3456 117.836 95.6189L119.356 96.5544L120.759 97.2556L126.254 102.167L126.605 103.218L132.919 106.843L141.805 109.766C141.992 106.96 143.131 104.232 143.676 103.218L144.962 102.868L148.237 95.2673L147.652 95.0339L147.885 88.6032L149.171 87.9011C149.288 85.7965 149.289 83.1068 150.341 77.9626C151.394 72.8183 152.562 71.1807 154.901 67.4392C156.771 64.4465 161.448 63.7764 163.553 63.8152C163.74 62.5997 165.424 62.2948 166.243 62.2946L174.662 62.0612L176.883 59.7224C178.193 51.8659 176.883 47.5629 176.065 46.3933C174.662 51.1638 171.816 53.1354 170.569 53.5251L172.323 50.2517L169.633 51.1872C170.491 50.2518 172.416 48.0298 173.258 46.6267C174.1 45.2236 173.531 43.7817 173.141 43.2361C171.552 39.7761 172.557 37.8974 173.258 37.3903V31.3093L175.129 28.8542C175.597 23.4293 181.56 19.2662 184.483 17.863L185.886 16.1091C188.38 15.3296 193.65 14.3561 194.773 16.6941C194.968 17.0448 195.334 17.8868 195.241 18.448C196.956 19.0718 200.665 21.9331 201.788 28.3864C202.91 34.8394 202.645 38.246 202.373 39.1433C202.957 39.0653 203.823 39.8225 202.607 43.4704C203.347 44.1721 204.173 45.6686 201.554 46.0427C202.49 47.329 204.383 50.7903 204.477 54.3444C204.126 53.3699 203.238 51.327 202.49 50.9528C202.607 51.4985 202.723 52.7541 202.255 53.4089C202.06 52.5512 201.203 50.5083 199.332 49.1989C199.138 49.5887 198.608 50.5324 198.046 51.1872V52.8239L198.865 53.2917L198.982 58.3191L200.853 57.1501C201.477 56.7994 203.004 56.4262 204.126 57.7351C204.477 58.4366 204.829 59.7227 206.465 59.9568C208.102 60.1906 209.038 60.6582 207.869 62.4118C208.258 62.7628 208.85 63.6747 208.102 64.5163C208.375 64.75 208.943 65.3111 209.038 65.6853H213.481C214.105 65.7244 215.444 66.154 215.819 67.5564C217.417 67.4784 220.963 68.0249 222.367 70.8308C224.12 74.3383 225.641 75.1575 227.278 82.9909C228.587 89.2571 228.759 91.1364 228.681 91.2927C228.798 92.5011 229.477 95.385 231.253 97.2556C233.475 99.5942 236.865 107.895 237.567 111.403C238.58 112.144 240.654 114.187 240.841 116.431C242.868 116.509 248.348 116.993 254.053 118.302C255.042 118.5 257.268 118.765 260.315 118.791C261.519 117.074 261.495 115.549 261.314 114.968C262.717 109.785 266.88 99.5345 272.305 100.002C279.086 100.586 283.881 99.4172 288.324 95.4421V91.5837C288.012 90.8039 287.318 88.5892 287.038 85.9704C285.868 86.0872 283.53 85.6427 283.53 82.9304C283.53 80.2191 283.374 78.8392 283.296 78.488C283.336 78.0203 283.882 77.2251 285.751 77.7859C285.712 77.3947 285.658 75.6557 285.751 71.823C285.845 67.9881 288.207 65.4697 289.376 64.6902L292.884 62.7028C295.597 61.1129 298.692 60.7928 299.9 60.8318C301.342 60.8319 304.974 61.955 307.967 66.4441C308.591 67.3404 309.908 70.3264 310.189 75.0964C310.189 75.9148 310.283 77.7395 310.657 78.488C311.124 79.4236 311.709 82.5808 309.838 86.322C307.968 90.0632 307.617 92.0515 305.512 94.156L305.279 98.365C305.942 98.4432 307.617 98.9971 309.02 100.587C310.774 102.574 315.334 105.146 320.479 105.614L323.635 108.654C324.181 109.122 325.389 111.554 325.857 117.541C325.974 119.489 325.974 124.275 325.039 127.83C324.844 128.531 324.641 130.636 325.389 133.442C326.324 136.95 326.559 143.615 325.974 146.422C327.884 146.616 332.826 145.953 337.316 141.744C341.805 137.535 345.188 133.988 346.319 132.741C346.397 132.312 346.857 131.127 348.073 129.818C349.289 128.508 351.074 126.31 351.815 125.375C352.166 124.946 353.242 124.041 354.738 123.854C356.609 123.62 360.467 121.75 361.051 120.113C361.637 118.476 366.663 118.243 363.858 123.27C364.988 123.855 366.359 125.585 362.805 127.83C363.39 128.375 364.091 129.865 362.221 131.455C363.156 131.884 364.465 133.232 362.221 135.196C361.676 135.313 360.444 135.805 359.882 136.834C359.18 138.12 355.322 140.341 352.165 141.043C349.641 141.604 348.697 142.601 348.54 143.03L347.605 143.264C344.799 145.33 338.344 150.491 334.977 154.606C331.61 158.721 326.715 160.53 324.688 160.92C324.025 162.05 323.051 165.269 324.454 169.104C324.921 169.728 325.834 171.396 325.741 173.08C326.52 173.586 327.774 174.81 326.559 175.652C326.325 175.808 326.278 176.682 327.961 178.926C329.645 181.171 330.924 186.799 331.353 189.333C331.275 190.502 331.4 193.379 332.522 195.53C333.925 198.219 335.796 205.469 335.211 208.626C334.744 211.151 334.315 211.158 334.159 210.846C334.626 213.692 335.398 222.376 334.744 234.348C334.627 235.128 334.579 237.062 335.328 238.558C336.076 240.055 335.874 242.767 335.679 243.936C335.796 245.378 335.96 248.59 335.679 249.9C335.328 251.537 334.861 257.734 335.679 262.879C336.497 268.024 332.873 292.81 331.119 300.528C329.717 306.697 329.443 307.932 329.482 307.778C329.326 308.597 329.014 310.795 329.014 313.04C329.014 315.285 329.326 319.977 329.482 322.043C329.677 323.095 330.839 326.112 333.925 329.759L335.211 329.642C336.03 330.967 337.971 333.735 339.187 334.203C340.402 334.671 340.94 335.801 341.057 336.307C342.655 336.619 346.155 338.132 347.372 341.686C348.151 341.803 349.639 342.692 349.359 345.31C349.008 346.402 345.173 348.257 332.639 346.948C331.298 346.762 328.418 346.205 327.186 345.421C328.687 346.5 331.096 349.487 329.832 353.729C328.523 358.125 323.986 358.29 321.881 357.822L310.073 355.249C307.189 354.469 301.584 351.227 302.239 344.492C302.316 343.985 302.097 342.621 300.601 341.218C299.105 339.815 299.51 337.672 299.9 336.775C300.29 336.541 301.092 335.793 301.186 334.671C301.303 333.268 300.953 332.098 302.239 330.11C301.771 329.408 301.139 327.234 302.355 324.147C302.55 320.6 302.589 312.08 301.186 306.375C299.432 299.242 292.183 268.725 295.691 260.774C296.12 259.215 296.672 254.155 295.457 246.392C294.24 238.629 289.961 227.801 287.973 223.358C286.998 223.748 284.512 223.801 282.361 220.902L281.192 214.471V212.25C279.087 206.559 275.206 194.337 276.515 190.969C275.969 189.527 275.135 186.152 276.164 184.188C275.384 183.681 274.293 181.662 276.164 177.64C275.891 176.822 275.58 174.857 276.515 173.548C276.203 172.105 276.118 168.473 278.269 165.48V158.582C277.606 158.231 276.117 156.71 275.462 153.436C274.644 149.345 274.761 148.409 275.112 147.24L271.837 149.695C270.551 150.553 266.529 152.782 260.73 154.84C260.34 154.957 259.21 155.425 257.807 156.36C256.404 157.295 254.961 156.593 254.415 156.126C253.129 154.8 250.792 151.074 251.727 146.772C252.662 142.471 253.597 141.082 253.948 140.926C254.26 140.496 254.977 138.89 255.351 135.898C255.499 134.712 255.836 132.831 256.286 130.742C255.23 130.892 254.321 130.995 253.703 131.047C249.493 131.203 240.303 131.562 237.216 131.749C234.13 131.935 232.422 129.8 231.955 128.709C230.832 127.68 230.006 125.239 229.733 124.148L228.915 123.68C227.231 121.342 226.109 118.574 225.758 117.483C222.765 113.087 219.677 107.311 218.508 104.972C218.235 104.741 217.854 106.007 218.508 112.924C219.163 119.845 218.236 125.551 217.69 127.539L218.859 129.176V136.191C222.717 138.062 232.305 145.545 232.657 147.65C232.937 149.333 234.255 150.3 234.878 150.573C237.123 150.76 238.151 153.068 238.385 154.198L236.047 153.145L236.983 154.899L235.112 154.081L234.059 155.484H232.657V156.302L231.838 156.537L232.657 159.342L230.435 157.238C230.825 158.485 231.207 160.325 229.617 157.706C228.027 155.087 229.11 152.64 229.85 151.743C227.901 150.184 223.582 146.762 221.899 145.546C220.216 144.331 220.028 145.74 220.145 146.597L221.198 148.001L220.847 149.637L222.25 152.093L225.173 163.669L227.511 174.309C227.745 175.829 228.353 179.828 228.915 183.663C229.476 187.498 226.031 190.64 224.238 191.731C224.043 194.498 223.583 200.711 223.302 203.424C223.022 206.136 222.406 217.181 222.133 222.365C222.718 224.82 222.718 229.848 222.133 231.602C221.666 233.005 221.938 235.85 222.133 237.097C226.109 251.947 215.118 289.48 213.714 293.456C212.311 297.431 210.091 308.888 211.259 311.462C212.195 313.519 211.804 316.139 211.493 317.191L214.416 320.583C215.04 321.09 216.591 322.641 217.807 324.792C219.327 327.48 221.315 328.182 222.133 328.3C222.952 328.416 223.42 329.001 224.823 330.755C225.945 332.158 225.524 334.068 225.173 334.847L225.992 335.783L225.758 338.589C223.654 340.81 218.859 340.109 214.533 340.109C211.071 340.109 204.204 337.459 201.204 336.134C200.549 338.191 197.501 339.641 196.059 340.109C188.693 341.746 177.818 338.822 177.117 338.471C176.557 338.189 176.727 336.172 176.883 335.198L175.714 332.626L177.117 329.586L177.584 326.078C179.143 324.012 181.981 319.436 180.859 317.659C179.737 315.882 180.547 312.476 181.092 310.995C181.482 308.384 182.075 302.951 181.327 302.108C180.579 301.266 180.858 299.575 181.092 298.835L179.573 287.259C178.481 279.97 176.135 263.593 175.48 256.39C174.825 249.188 176.455 241.385 177.351 238.384C177 233.94 177.117 226.107 177.351 222.95C177.585 219.793 177 213.245 175.129 209.386C173.633 206.3 171.933 201.163 171.271 198.98C166.127 198.746 166.71 198.395 163.203 197.109C160.397 196.08 161.254 192.393 162.034 190.678C161.76 190.366 160.981 189.532 160.046 188.691C159.112 187.849 159.578 187.015 159.929 186.703C160.085 186.547 160.514 185.954 160.981 184.833C161.449 183.71 161.176 180 160.981 178.285C161.098 177.388 161.261 174.566 160.981 170.451C160.7 166.336 161.099 164.059 161.332 163.435C161.41 163.162 161.448 161.751 160.981 158.291C160.513 154.83 161.333 152.717 161.8 152.093C161.761 151.703 161.613 150.526 161.332 148.936C161.052 147.346 161.917 144.61 162.384 143.441L163.203 139.816L164.373 137.477L165.074 134.087L165.424 131.514L166.828 127.539C165.424 124.964 160.28 108.246 161.8 103.569C163.016 99.8279 162.15 98.1131 161.566 97.7234C162.033 101.839 158.721 109.103 157.006 112.221V113.157C156.5 114.755 155.369 118.045 154.901 118.419C154.433 118.793 154.317 120.056 154.317 120.64C154.504 122.885 152.914 124.85 152.095 125.551C151.978 125.707 151.253 126.464 149.289 128.241C147.565 129.8 145.776 129.553 144.836 129.127C144.738 129.07 143.146 128.194 137.479 125.084C129.809 120.874 122.513 113.664 119.824 110.585L113.977 106.259C113.819 106.14 113.086 105.508 111.405 103.921C110.705 103.26 110.034 102.792 109.451 102.467L109.565 103.975L109.798 107.015C109.837 107.99 109.728 110.359 108.98 112.043C108.045 114.147 108.162 114.147 107.343 116.252C106.688 117.935 105.745 119.058 105.355 119.409C105.043 119.682 104.139 120.532 103.017 121.748C101.614 123.268 98.3397 123.267 97.521 121.513C96.8664 120.111 95.9236 119.526 95.5336 119.409L96.1186 126.425L97.521 127.476C99.2046 134.772 99.86 143.3 99.977 146.652C99.5873 147.315 98.948 148.874 99.5092 149.809C100.07 150.744 100.444 151.914 100.561 152.382C100.717 154.603 100.889 159.443 100.328 161.034C99.7664 162.624 99.8601 164.347 99.977 165.009C100.632 170.248 99.938 173.74 99.5092 174.832C98.7297 176.937 97.1705 182.081 97.1704 185.822C97.1703 189.562 96.3913 191.122 96.0014 191.434L99.0415 193.54L97.1704 196.112C96.4297 196.697 94.785 198.1 94.1303 199.035C93.4758 199.97 92.6884 200.048 92.3764 199.97C89.5312 210.104 84.4256 232.289 86.7641 239.959C89.6398 249.392 86.0651 272.406 84.9467 279.605L84.893 279.947C84.0511 285.372 81.1908 299.435 79.8657 305.788C78.7354 309.335 76.615 317.434 77.1762 321.456C77.8777 326.483 77.7608 328.237 77.1762 331.16C76.7086 333.498 78.0724 335.799 78.8129 336.656C79.9823 338.488 82.578 342.362 83.6069 343.204C84.8929 344.256 86.0629 345.659 86.8813 347.53C87.7002 349.4 90.6218 350.921 86.0629 353.025C81.503 355.13 66.6534 355.831 61.976 355.715C58.2345 355.621 59.0141 352.48 59.8715 350.921C59.1234 350.64 58.0787 349.323 57.6499 348.699L51.687 352.44C43.7362 356.743 32.3162 355.948 27.6001 355.012L28.3012 350.218C27.0161 345.543 33.2082 342.855 33.5629 342.736C33.8449 342.641 37.2662 338.955 38.9419 337.124C39.0354 335.814 40.6956 332.914 41.5141 331.628C40.766 330.038 40.6568 328.159 40.6958 327.419C40.657 327.495 40.8127 326.574 41.7475 322.274C42.6829 317.972 40.6571 308.321 39.5268 304.034C31.4612 259.965 33.5618 248.15 33.5629 247.793C33.5629 247.442 36.6033 237.269 35.5512 233.761C34.7094 230.955 35.2005 221.758 35.5512 217.509C35.7071 215.21 35.7842 210.073 34.8491 207.922C33.68 205.233 31.8099 191.438 31.2251 189.214C30.6405 186.992 28.8866 184.302 27.3667 182.081C25.8467 179.859 24.9103 178.806 23.5073 176.234C22.3851 174.176 22.7287 170.856 23.0405 169.453C19.2989 169.843 11.7449 172.049 11.4643 177.755C11.1839 183.46 16.882 185.277 19.7661 185.471C15.8375 187.436 10.4126 183.328 8.19088 181.028C6.69454 181.028 5.38441 180.327 4.91646 179.976C0.333283 177.264 0.0444822 171.597 0.473102 169.102C-1.39763 164.542 2.81218 163.256 3.8647 161.385C4.91703 159.515 9.47704 151.33 11.2309 149.108C12.9848 146.887 13.9199 146.067 17.1938 144.898C19.8132 143.963 28.0285 141.547 31.809 140.456L31.9262 139.52L33.3295 138.818C32.9556 136.854 33.7974 135.427 34.2651 134.96C34.0782 132.995 35.3564 130.868 36.019 130.05C36.1125 127.805 36.3698 125.684 36.4868 124.904C36.2998 122.753 36.8761 119.877 37.1879 118.708C35.6914 116.182 34.4595 112.043 34.0307 110.289L32.979 110.406L31.3413 107.132L31.5756 105.845L30.4067 103.858C27.8345 102.806 22.5721 99.5321 20.4672 97.4275C18.3627 95.3229 17.4274 94.6207 15.4399 93.3347C13.8498 92.3058 14.1536 90.8011 14.5044 90.1775L15.6733 88.5407C12.4932 86.0153 13.7254 84.2142 14.7387 83.6296C14.1776 82.3201 14.6603 80.4336 14.9721 79.654C13.1018 77.7834 15.0501 76.6924 16.2583 76.3806C17.1937 76.4195 19.3448 76.4741 20.4672 76.3806C21.8698 76.2638 22.455 77.0818 22.6889 77.5495C22.9232 78.0174 24.3273 79.1866 28.185 80.9402C31.271 82.3429 32.8223 83.3176 33.2124 83.6296L32.5112 80.239C29.5881 70.0668 31.8091 68.6633 30.6401 63.4021C29.7079 59.2074 31.7175 56.6768 32.8501 55.9265C32.9668 55.8728 33.6483 55.5467 35.7846 54.5153C38.4971 53.206 42.6829 53.4242 44.437 53.697C50.6104 55.3805 54.727 53.2292 56.0131 51.9431V48.2019L58.4682 41.654C59.1229 37.3517 56.8709 33.4697 55.6626 32.0661C55.3897 31.4815 54.5161 30.9902 53.2065 33.7028C51.5697 37.0932 50.2835 37.6778 49.3481 37.0935C48.6001 36.6257 49.0363 35.4956 49.3481 34.989L47.9448 34.404L48.6469 32.6501V30.3122C49.4656 30.0392 51.2657 28.8381 51.9204 26.2194C52.5752 23.6004 54.1426 22.0104 54.8442 21.5427C53.3242 20.8412 53.324 19.0869 53.9086 15.3454C54.3763 12.3528 55.9737 11.0589 56.7143 10.7859C59.0527 2.92885 66.3408 1.50929 69.6928 1.78195H70.395ZM62.2094 191.318C60.2453 197.024 59.9098 212.091 59.9878 218.912C60.7282 222.225 61.5548 230.16 58.936 235.398C56.317 240.636 56.519 246.077 56.9477 248.143C58.2572 257.404 56.4023 275.153 55.311 282.87V311.751C55.311 316.334 56.3248 318.805 56.8315 319.467C59.1696 321.619 58.7414 327.301 58.2348 329.874C58.4687 336.538 61.742 331.278 61.2749 328.004C60.9008 325.385 61.119 323.717 61.2749 323.21C61.6256 322.43 62.6075 319.842 63.7299 315.726C65.133 310.582 66.3027 304.618 64.7827 285.559C63.5667 270.313 64.276 258.238 64.7827 254.106C65.2504 251.144 65.905 244.238 64.7827 240.309C63.6602 236.381 63.6912 225.188 63.8471 220.082C64.081 214.976 64.7592 203.688 65.601 199.385C66.4427 195.084 66.1072 192.215 65.8344 191.318H62.2094ZM308.202 212.25C308.419 213.147 308.663 214.08 308.924 215.027C310.755 222.315 313.231 234.047 312.411 238.558C313.502 242.066 315.357 250.25 314.047 254.927C312.41 260.774 309.605 260.073 311.359 269.894C313.113 279.715 312.644 277.261 312.411 298.774C311.943 301.853 311.288 309.017 312.411 313.04C313.533 317.061 313.502 319.08 313.346 319.588C314.086 320.328 315.146 322.159 315.333 323.094C315.521 324.03 316.27 321.692 316.621 320.406C316.777 319.47 317.252 317.272 317.907 315.963C318.561 314.652 318.49 306.219 318.373 302.166L316.971 278.897C316.464 276.247 315.825 269.8 317.322 265.217C318.818 260.633 318.335 254.499 317.907 252.005C317.556 250.796 316.714 246.766 316.153 240.312C315.592 233.858 313.969 229.593 313.229 228.268C312.306 225.797 310.354 220.201 308.924 215.027C308.667 214.003 308.423 213.066 308.202 212.25ZM194.89 197.928C196.41 202.839 197.111 209.854 196.877 212.544C196.69 214.695 197.19 217.649 197.462 218.857C198.242 222.754 199.169 231.602 196.644 235.811C194.119 240.02 194.032 243.88 194.305 245.283C195.989 253.421 195.474 263.328 195.006 267.264C194.071 275.994 192.201 294.25 192.201 297.431C192.201 300.612 192.746 305.07 193.019 306.902C196.059 312.982 195.123 312.866 195.006 314.619C194.913 316.022 195.669 318.711 196.059 319.881H196.995C197.345 319.88 197.93 319.132 197.462 316.139C196.878 312.398 197.462 313.567 199.099 307.37C200.409 302.412 201.203 294.547 201.437 291.234C201.515 279.308 201.929 254.287 202.957 249.609C204.244 243.763 204.36 234.759 203.308 232.771C202.256 230.783 201.671 224.353 201.905 221.781C202.092 219.723 201.983 218.273 201.905 217.805C201.593 217.103 200.876 214.39 200.502 209.153C200.128 203.915 198.787 199.488 198.164 197.928H194.89ZM270.201 130.051C269.655 131.805 268.283 135.804 267.161 137.768C265.758 140.224 267.395 139.873 268.681 139.172C269.71 138.61 271.292 137.768 271.955 137.418C271.877 135.586 271.417 131.548 270.201 130.051Z" fill="#BDCFAA"/>
</svg>
