<svg width="551" height="309" viewBox="0 0 551 309" fill="none" xmlns="http://www.w3.org/2000/svg">
<path d="M0 0H550.21V285.005C550.21 298.259 539.465 309.005 526.21 309.005H0V0Z" fill="#ACEC00"/>
<path d="M480.178 251.176L476.653 250.489V252.183H475.371V250.245L472.625 249.711V251.405H471.343V249.451L467.818 248.765V247.376L471.343 248.063V245.683L467.818 244.996V243.607L471.343 244.294V242.6H472.625V244.538L475.371 245.072V243.378H476.653V245.332L480.178 246.018V247.407L476.653 246.72V249.1L480.178 249.787V251.176ZM475.432 248.948V246.4L472.564 245.835V248.383L475.432 248.948ZM480.178 242.268L467.818 236.973V235.035L480.178 229.756V231.511L476.485 233.098V238.972L480.178 240.544V242.268ZM474.99 238.408V233.632L469.466 235.966V236.043L474.99 238.408ZM480.376 223.283C480.376 224.535 480.117 225.628 479.598 226.564C479.069 227.49 478.326 228.207 477.37 228.715C476.414 229.224 475.29 229.478 473.998 229.478C472.706 229.478 471.587 229.224 470.641 228.715C469.685 228.207 468.947 227.49 468.428 226.564C467.9 225.628 467.635 224.535 467.635 223.283C467.635 222.327 467.793 221.483 468.108 220.75C468.413 220.008 468.866 219.397 469.466 218.919C470.056 218.441 470.773 218.116 471.618 217.943V219.713C470.834 219.896 470.229 220.298 469.802 220.918C469.375 221.529 469.161 222.317 469.161 223.283C469.161 224.677 469.593 225.771 470.458 226.564C471.323 227.357 472.503 227.754 473.998 227.754C475.503 227.754 476.689 227.357 477.553 226.564C478.408 225.771 478.835 224.677 478.835 223.283C478.835 222.317 478.626 221.529 478.209 220.918C477.782 220.298 477.177 219.896 476.394 219.713V217.943C477.228 218.116 477.945 218.441 478.545 218.919C479.135 219.397 479.588 220.008 479.903 220.75C480.218 221.483 480.376 222.327 480.376 223.283ZM480.178 207.444V216.066H467.818V207.444H469.314V214.311H473.037V207.811H474.501V214.311H478.682V207.444H480.178ZM480.376 200.002C480.376 201.253 480.117 202.347 479.598 203.282C479.069 204.208 478.326 204.925 477.37 205.434C476.414 205.943 475.29 206.197 473.998 206.197C472.706 206.197 471.587 205.943 470.641 205.434C469.685 204.925 468.947 204.208 468.428 203.282C467.9 202.347 467.635 201.253 467.635 200.002C467.635 199.046 467.793 198.201 468.108 197.469C468.413 196.726 468.866 196.116 469.466 195.638C470.056 195.16 470.773 194.834 471.618 194.661V196.431C470.834 196.614 470.229 197.016 469.802 197.637C469.375 198.247 469.161 199.035 469.161 200.002C469.161 201.395 469.593 202.489 470.458 203.282C471.323 204.076 472.503 204.473 473.998 204.473C475.503 204.473 476.689 204.076 477.553 203.282C478.408 202.489 478.835 201.395 478.835 200.002C478.835 199.035 478.626 198.247 478.209 197.637C477.782 197.016 477.177 196.614 476.394 196.431V194.661C477.228 194.834 477.945 195.16 478.545 195.638C479.135 196.116 479.588 196.726 479.903 197.469C480.218 198.201 480.376 199.046 480.376 200.002ZM480.361 189.03C480.361 190.505 479.822 191.624 478.743 192.387C477.655 193.15 476.073 193.532 473.998 193.532C471.923 193.532 470.346 193.15 469.268 192.387C468.179 191.624 467.635 190.505 467.635 189.03C467.635 187.555 468.179 186.436 469.268 185.673C470.346 184.91 471.923 184.529 473.998 184.529C476.073 184.529 477.655 184.91 478.743 185.673C479.822 186.436 480.361 187.555 480.361 189.03ZM478.896 189.03C478.896 188.074 478.489 187.362 477.675 186.894C476.851 186.416 475.626 186.177 473.998 186.177C472.36 186.177 471.134 186.416 470.321 186.894C469.507 187.362 469.1 188.074 469.1 189.03C469.1 189.976 469.507 190.688 470.321 191.167C471.124 191.645 472.35 191.884 473.998 191.884C475.646 191.884 476.877 191.645 477.691 191.167C478.494 190.688 478.896 189.976 478.896 189.03ZM480.361 178.498C480.361 179.973 479.822 181.092 478.743 181.855C477.655 182.618 476.073 183 473.998 183C471.923 183 470.346 182.618 469.268 181.855C468.179 181.092 467.635 179.973 467.635 178.498C467.635 177.023 468.179 175.904 469.268 175.141C470.346 174.378 471.923 173.997 473.998 173.997C476.073 173.997 477.655 174.378 478.743 175.141C479.822 175.904 480.361 177.023 480.361 178.498ZM478.896 178.498C478.896 177.542 478.489 176.83 477.675 176.362C476.851 175.884 475.626 175.645 473.998 175.645C472.36 175.645 471.134 175.884 470.321 176.362C469.507 176.83 469.1 177.542 469.1 178.498C469.1 179.444 469.507 180.156 470.321 180.634C471.124 181.113 472.35 181.352 473.998 181.352C475.646 181.352 476.877 181.113 477.691 180.634C478.494 180.156 478.896 179.444 478.896 178.498Z" fill="#4D5557"/>
<rect width="363.139" height="309.005" fill="#013FF6"/>
<path d="M306.859 242.471L303.335 241.785V243.478H302.053V241.541L299.306 241.006V242.7H298.025V240.747L294.5 240.06V238.672L298.025 239.359V236.978L294.5 236.292V234.903L298.025 235.59V233.896H299.306V235.834L302.053 236.368V234.674H303.335V236.627L306.859 237.314V238.702L303.335 238.016V240.396L306.859 241.083V242.471ZM302.114 240.244V237.695L299.245 237.131V239.679L302.114 240.244ZM307.042 228.391C307.042 229.866 306.503 230.985 305.425 231.748C304.337 232.511 302.755 232.892 300.68 232.892C298.604 232.892 297.028 232.511 295.949 231.748C294.861 230.985 294.317 229.866 294.317 228.391C294.317 226.916 294.861 225.797 295.949 225.034C297.028 224.271 298.604 223.89 300.68 223.89C302.755 223.89 304.337 224.271 305.425 225.034C306.503 225.797 307.042 226.916 307.042 228.391ZM305.578 228.391C305.578 227.435 305.171 226.723 304.357 226.255C303.533 225.777 302.307 225.538 300.68 225.538C299.042 225.538 297.816 225.777 297.002 226.255C296.188 226.723 295.782 227.435 295.782 228.391C295.782 229.337 296.188 230.049 297.002 230.527C297.806 231.005 299.032 231.244 300.68 231.244C302.328 231.244 303.558 231.005 304.372 230.527C305.176 230.049 305.578 229.337 305.578 228.391ZM306.859 221.429H305.44V218.164H296.407L298.787 221.643V221.704H297.063L294.5 217.92V216.455H305.44V213.663H306.859V221.429ZM307.042 207.464C307.042 208.797 306.742 209.845 306.142 210.607C305.542 211.37 304.693 211.803 303.594 211.904V210.226C304.235 210.165 304.728 209.9 305.074 209.433C305.41 208.954 305.578 208.308 305.578 207.495C305.578 206.62 305.379 205.928 304.983 205.419C304.576 204.911 304.026 204.657 303.335 204.657C302.663 204.657 302.129 204.901 301.732 205.389C301.326 205.867 301.122 206.503 301.122 207.296V209.249H299.749V207.19C299.749 206.518 299.566 205.974 299.199 205.557C298.833 205.14 298.36 204.931 297.78 204.931C297.17 204.931 296.682 205.155 296.316 205.603C295.949 206.05 295.766 206.65 295.766 207.403C295.766 208.146 295.939 208.741 296.285 209.188C296.621 209.636 297.114 209.926 297.765 210.058V211.691C297.063 211.62 296.453 211.396 295.934 211.019C295.415 210.643 295.019 210.14 294.744 209.509C294.459 208.878 294.317 208.146 294.317 207.312C294.317 206.508 294.449 205.801 294.713 205.191C294.978 204.58 295.354 204.107 295.843 203.772C296.321 203.436 296.88 203.268 297.521 203.268C298.162 203.268 298.726 203.451 299.215 203.817C299.693 204.173 300.059 204.687 300.313 205.358H300.374C300.578 204.585 300.944 203.995 301.473 203.588C301.992 203.182 302.643 202.978 303.426 202.978C304.159 202.978 304.799 203.161 305.349 203.527C305.888 203.894 306.305 204.412 306.6 205.084C306.895 205.755 307.042 206.549 307.042 207.464ZM306.859 198.794V200.548H294.5V192.08H295.995V198.794H299.886V192.476H301.381V198.794H306.859ZM306.859 188.512V190.267H294.5V181.798H295.995V188.512H299.886V182.195H301.381V188.512H306.859ZM307.042 175.941C307.042 177.467 306.529 178.642 305.501 179.466C304.464 180.29 302.989 180.702 301.076 180.702C298.889 180.702 297.216 180.285 296.056 179.451C294.897 178.617 294.317 177.406 294.317 175.819C294.317 174.731 294.581 173.836 295.11 173.134C295.629 172.432 296.372 171.969 297.338 171.745V173.424C296.819 173.596 296.427 173.886 296.163 174.293C295.888 174.69 295.751 175.199 295.751 175.819C295.751 176.847 296.143 177.625 296.926 178.154C297.699 178.673 298.889 178.957 300.496 179.008V178.947C299.957 178.632 299.55 178.205 299.276 177.665C298.991 177.116 298.849 176.485 298.849 175.773C298.849 174.949 299.016 174.227 299.352 173.607C299.678 172.986 300.14 172.508 300.741 172.172C301.341 171.826 302.043 171.654 302.846 171.654C303.691 171.654 304.428 171.832 305.059 172.188C305.69 172.544 306.178 173.042 306.524 173.683C306.87 174.324 307.042 175.077 307.042 175.941ZM305.608 176.002C305.608 175.188 305.364 174.537 304.876 174.049C304.387 173.561 303.742 173.317 302.938 173.317C302.134 173.317 301.488 173.586 301 174.125C300.502 174.665 300.252 175.367 300.252 176.231C300.252 177.014 300.466 177.655 300.893 178.154C301.32 178.652 301.865 178.901 302.526 178.901C303.452 178.901 304.199 178.632 304.769 178.093C305.328 177.554 305.608 176.857 305.608 176.002Z" fill="white"/>
<rect width="192.574" height="309.005" fill="#FCBD16"/>
<path d="M136.297 264.232L132.772 263.546V265.239H131.49V263.302L128.744 262.767V264.461H127.462V262.508L123.937 261.821V260.433L127.462 261.12V258.739L123.937 258.053V256.664L127.462 257.351V255.657H128.744V257.595L131.49 258.129V256.435H132.772V258.388L136.297 259.075V260.463L132.772 259.777V262.157L136.297 262.844V264.232ZM131.551 262.005V259.456L128.683 258.892V261.44L131.551 262.005ZM136.297 252.151V253.906L123.937 253.906V245.437H125.433V252.151H129.324V245.834H130.819V252.151H136.297ZM136.495 238.307C136.495 239.558 136.236 240.652 135.717 241.588C135.188 242.513 134.445 243.23 133.489 243.739C132.533 244.248 131.409 244.502 130.117 244.502C128.825 244.502 127.706 244.248 126.76 243.739C125.804 243.23 125.066 242.513 124.548 241.588C124.019 240.652 123.754 239.558 123.754 238.307C123.754 237.351 123.912 236.506 124.227 235.774C124.532 235.031 124.985 234.421 125.585 233.943C126.175 233.465 126.892 233.139 127.737 232.966V234.736C126.953 234.92 126.348 235.321 125.921 235.942C125.494 236.552 125.28 237.341 125.28 238.307C125.28 239.701 125.712 240.794 126.577 241.588C127.442 242.381 128.622 242.778 130.117 242.778C131.623 242.778 132.808 242.381 133.672 241.588C134.527 240.794 134.954 239.701 134.954 238.307C134.954 237.341 134.746 236.552 134.328 235.942C133.901 235.321 133.296 234.92 132.513 234.736V232.966C133.347 233.139 134.064 233.465 134.664 233.943C135.254 234.421 135.707 235.031 136.022 235.774C136.338 236.506 136.495 237.351 136.495 238.307ZM136.297 231.089H123.937V225.092C123.937 224.37 124.064 223.745 124.319 223.216C124.573 222.687 124.939 222.275 125.417 221.98C125.885 221.674 126.445 221.522 127.096 221.522C127.777 221.522 128.347 221.73 128.805 222.147C129.252 222.565 129.542 223.053 129.675 223.612H129.736C129.797 223.195 129.949 222.778 130.193 222.361C130.438 221.944 130.778 221.598 131.216 221.323C131.643 221.049 132.177 220.912 132.818 220.912C133.52 220.912 134.13 221.079 134.649 221.415C135.168 221.741 135.575 222.198 135.87 222.788C136.154 223.378 136.297 224.055 136.297 224.818V231.089ZM134.802 229.334V225.184C134.802 224.391 134.618 223.77 134.252 223.322C133.886 222.875 133.362 222.651 132.681 222.651C131.989 222.651 131.47 222.875 131.124 223.322C130.778 223.77 130.605 224.385 130.605 225.169V229.334H134.802ZM129.171 229.334V225.306C129.171 224.665 129.008 224.167 128.683 223.811C128.357 223.444 127.899 223.261 127.309 223.261C126.699 223.261 126.236 223.444 125.921 223.811C125.595 224.167 125.433 224.665 125.433 225.306V229.334H129.171ZM136.297 218.662H123.937V214.191C123.937 212.848 124.187 211.693 124.685 210.727C125.173 209.75 125.88 209.003 126.806 208.484C127.732 207.955 128.835 207.691 130.117 207.691C131.389 207.691 132.487 207.955 133.413 208.484C134.339 209.013 135.051 209.766 135.549 210.742C136.048 211.709 136.297 212.858 136.297 214.191V218.662ZM134.802 216.907V214.191C134.802 212.695 134.39 211.536 133.566 210.712C132.742 209.878 131.592 209.461 130.117 209.461C128.632 209.461 127.482 209.873 126.669 210.696C125.845 211.52 125.433 212.685 125.433 214.191V216.907H134.802ZM136.297 205.175H134.878V201.909H125.845L128.225 205.388V205.449H126.501L123.937 201.665V200.2H134.878V197.408H136.297V205.175ZM136.48 190.782C136.48 192.308 135.966 193.483 134.939 194.307C133.901 195.131 132.426 195.543 130.514 195.543C128.327 195.543 126.653 195.126 125.494 194.292C124.334 193.458 123.754 192.247 123.754 190.66C123.754 189.572 124.019 188.676 124.548 187.975C125.066 187.273 125.809 186.81 126.775 186.586V188.264C126.257 188.437 125.865 188.727 125.6 189.134C125.326 189.531 125.189 190.04 125.189 190.66C125.189 191.688 125.58 192.466 126.363 192.995C127.137 193.513 128.327 193.798 129.934 193.849V193.788C129.395 193.473 128.988 193.046 128.713 192.506C128.428 191.957 128.286 191.326 128.286 190.614C128.286 189.79 128.454 189.068 128.79 188.448C129.115 187.827 129.578 187.349 130.178 187.013C130.778 186.667 131.48 186.494 132.284 186.494C133.128 186.494 133.866 186.672 134.496 187.028C135.127 187.385 135.615 187.883 135.961 188.524C136.307 189.165 136.48 189.917 136.48 190.782ZM135.046 190.843C135.046 190.029 134.802 189.378 134.313 188.89C133.825 188.402 133.179 188.158 132.375 188.158C131.572 188.158 130.926 188.427 130.438 188.966C129.939 189.505 129.69 190.207 129.69 191.072C129.69 191.855 129.903 192.496 130.331 192.995C130.758 193.493 131.302 193.742 131.963 193.742C132.889 193.742 133.637 193.473 134.206 192.934C134.766 192.394 135.046 191.698 135.046 190.843Z" fill="white"/>
</svg>
