<svg width="443" height="311" viewBox="0 0 443 311" fill="none" xmlns="http://www.w3.org/2000/svg">
<path d="M240.473 14.2549L213.823 0L196.469 4.33843L184.074 11.156L176.016 17.9735L164.241 24.791L146.887 39.0459L133.872 45.8634L122.096 52.681L109.7 62.5974L102.263 65.6963L97.3049 72.5138L83.05 85.5291L65.6963 98.5444L52.0612 110.32L45.8634 112.799L37.8063 122.716C33.6745 126.021 25.1629 132.756 24.1713 133.252C23.1796 133.748 20.8658 135.938 19.8328 136.971L13.0153 146.887L4.33843 156.184L0 168.579L6.81754 167.959L16.1142 163.621L19.8328 167.959L24.1713 163.621L26.6504 167.959L33.4679 163.621V176.636L39.6657 166.1L42.1448 180.355L48.9623 168.579L44.0041 185.933L48.9623 181.594L52.0612 193.99L55.1601 185.933L58.259 180.355V171.678L61.9776 175.397L63.8369 169.819L68.1754 176.636L75.6127 172.918L73.7534 180.355L77.472 189.032V183.454L83.05 177.876L81.8104 185.933L85.5291 193.99V185.933L88.628 193.99L92.3466 192.131L95.4455 181.594L101.024 178.496L105.982 173.537V197.709L112.179 195.849L117.757 197.709L120.856 202.047L125.815 197.709L132.012 183.454L140.069 185.933L143.168 180.355L146.887 175.397V171.678L149.986 181.594L152.465 176.636L160.522 171.678V175.397L163.001 185.933L167.34 192.131L169.819 189.032L173.537 183.454H178.496L182.834 180.355L187.172 172.918L190.271 168.579V172.298L195.849 180.355L200.807 185.933L205.766 181.594L210.724 178.496L213.823 180.355L220.64 178.496L224.359 175.397L229.317 172.298L236.135 169.819L241.713 171.678L252.249 173.537L256.587 167.959L259.066 171.678L268.363 176.636L275.181 172.918L280.759 169.819H289.435L293.774 172.918L300.591 178.496L308.648 168.579L312.367 172.298L314.846 169.819L317.945 176.636L320.424 169.819L326.002 175.397V169.819L329.101 176.636L331.58 169.819L334.679 173.537V167.959L339.018 169.819L341.497 163.001L348.314 175.397L350.793 166.72L354.512 175.397L356.371 166.72L361.329 178.496L362.569 172.298L358.231 161.142L361.329 165.48L371.246 172.918L375.584 166.72L381.782 175.397L389.839 171.678L397.896 169.819L400.375 171.678H407.813V173.537H413.391L420.828 176.636L423.927 173.537H427.646L428.885 169.819L433.224 171.678V169.819L435.083 165.48L440.041 166.72L437.562 163.001L442.52 165.48L440.041 155.564L433.224 147.507L423.927 137.59L417.109 130.153L407.813 120.856L397.896 114.039L387.36 107.221L383.022 102.263C381.782 100.61 379.179 97.1809 378.683 96.6851C378.187 96.1893 374.345 93.5862 372.485 92.3466L364.428 89.2478L358.231 84.2896L350.793 78.0918L344.596 73.7534L335.919 70.0347L329.101 65.6963L317.945 57.0194L307.409 50.8216L298.112 46.4832L285.717 38.4261C283.444 37.1866 278.651 34.7075 277.66 34.7075C276.42 34.7075 273.321 32.8481 272.082 32.2284C271.09 31.7325 267.95 29.5427 266.504 28.5097C264.644 27.6833 260.554 26.0306 259.066 26.0306C257.207 26.0306 252.869 21.6922 250.39 19.8328C248.406 18.3454 245.431 16.3208 244.192 15.4944L240.473 14.2549Z" fill="#BDCFAA"/>
<path d="M375.584 166.72L381.782 175.397C384.261 204.65 380.749 264.025 378.683 290.055C355.875 302.947 300.178 309.062 275.181 310.508C162.629 314.97 86.1488 287.989 61.9775 273.941V175.397L63.8369 169.819L68.1753 176.636L75.6126 172.918L73.7533 180.355L77.4719 189.032V183.454L83.0499 177.876L81.8104 185.933L85.529 193.99V185.933L88.6279 193.99L92.3466 192.131L95.4455 181.594L101.023 178.496L105.982 173.537V197.709L112.179 195.849L117.757 197.709L120.856 202.047L125.814 197.709L132.012 183.454L140.069 185.933L143.168 180.355L146.887 175.397V171.678L149.986 181.594L152.465 176.636L160.522 171.678V175.397L163.001 185.933L167.339 192.131L169.819 189.032L173.537 183.454H178.495L182.834 180.355L187.172 172.918L190.271 168.579V172.298L195.849 180.355L200.807 185.933L205.766 181.594L210.724 178.496L213.823 180.355L220.64 178.496L224.359 175.397L229.317 172.298L236.135 169.819L241.713 171.678L252.249 173.537L256.587 167.959L259.066 171.678L268.363 176.636L275.181 172.918L280.759 169.819H289.435L293.774 172.918L300.591 178.496L308.648 168.579L312.367 172.298L314.846 169.819L317.945 176.636L320.424 169.819L326.002 175.397V169.819L329.101 176.636L331.58 169.819L334.679 173.537V167.959L339.017 169.819L341.497 163.001L348.314 175.397L350.793 166.72L354.512 175.397L356.371 166.72L361.329 178.496L362.569 172.298L358.231 161.142L361.329 165.48L371.246 172.918L375.584 166.72Z" fill="#D9E9C7"/>
<path d="M334.679 167.959L339.018 169.819V302.451C339.018 302.451 321.379 305.954 309.888 307.409C298.58 308.841 280.759 309.888 280.759 309.888V169.819H289.436L293.774 172.918L300.592 178.496L308.649 168.579L312.367 172.298L314.846 169.819L317.945 176.636L320.424 169.819L326.002 175.397V169.819L329.101 176.636L331.58 169.819L334.679 173.537V167.959Z" fill="#7D9169"/>
<path d="M334.679 167.959L339.018 169.819V302.451C327.449 304.723 299.6 309.392 280.759 309.888V305.55C292.121 304.93 318.813 302.575 334.679 298.112V173.537V167.959Z" fill="#6D7E5A"/>
<path d="M169.199 228.078C153.828 228.573 137.59 225.392 131.393 223.119V193.99C136.764 196.676 151.845 199.072 169.199 197.089V228.078Z" fill="#7D9169"/>
<path d="M136.351 221.26V195.849C132.88 195.353 131.599 194.403 131.393 193.99V223.119C144.284 228.078 161.968 228.491 169.199 228.078V224.979C156.308 225.97 141.929 222.913 136.351 221.26Z" fill="#6D7E5A"/>
</svg>
