<svg width="297" height="300" viewBox="0 0 297 300" fill="none" xmlns="http://www.w3.org/2000/svg">
<path d="M173.775 9.88299C173.53 10.2649 173.371 10.6958 173.309 11.1456L172.35 18.1818C172.274 18.7407 172.351 19.3099 172.573 19.8283L173.151 21.1763C173.317 21.5637 173.402 21.9809 173.402 22.4024V26.2348C173.402 26.6242 173.508 27.0063 173.709 27.3402C174.216 28.1852 174.083 29.2672 173.386 29.9641L172.108 31.2418C171.468 31.8811 171.245 32.827 171.531 33.6848L171.6 33.893C171.756 34.3604 172.091 34.7467 172.532 34.967C173.077 35.2395 173.454 35.7622 173.54 36.3656L173.702 37.4973C173.759 37.9003 173.986 38.2597 174.325 38.4854C174.723 38.7507 174.962 39.1974 174.962 39.6758V40.8647C174.962 41.1192 174.993 41.3727 175.055 41.6196L175.224 42.295C175.308 42.6336 175.335 42.984 175.304 43.3316L175.013 46.5368C174.979 46.9008 175.049 47.2668 175.212 47.5937C175.538 48.2449 175.477 49.0227 175.053 49.6152L169.896 56.8358L163.54 68.427C163.362 68.7503 163.244 69.1026 163.19 69.4674L161.809 78.7872C161.746 79.2159 161.593 79.6266 161.362 79.993L157.782 85.6626C157.308 86.4127 156.537 86.925 155.662 87.0709L151.603 87.7473C150.611 87.9125 149.601 87.5887 148.89 86.8778L144.387 82.3745C143.995 81.9821 143.715 81.492 143.575 80.9549L141.16 71.6377C141.094 71.3828 140.996 71.1373 140.868 70.9071L135.401 61.0671C135.277 60.8447 135.127 60.6383 134.953 60.4525L123.915 48.6522L112.294 38.5304C111.991 38.2664 111.639 38.0637 111.259 37.9333L98.1963 33.4539L89.6775 30.8613C89.3837 30.7719 89.0783 30.7264 88.7712 30.7264H77.6649C75.7574 30.7264 74.2986 29.0261 74.5886 27.1408L74.6872 26.5C74.7718 25.9501 74.7074 25.3875 74.5008 24.8709L73.4107 22.1457C73.3092 21.892 73.1748 21.6528 73.0108 21.4342L71.5873 19.5362C71.1589 18.965 70.527 18.5808 69.8227 18.4635C69.0342 18.332 68.2272 18.5469 67.6085 19.0531L65.4367 20.8295C64.7141 21.4207 64.2949 22.305 64.2949 23.2387V23.817C64.2949 24.2612 64.1998 24.7003 64.0161 25.1047L62.5542 28.3216C62.4208 28.6151 62.4033 28.9481 62.5053 29.254C62.87 30.3481 61.7126 31.327 60.6942 30.7859L58.4031 29.5686C56.3319 28.4681 54.1257 30.7919 55.3324 32.8032L56.474 34.7061C56.7472 35.1616 56.8916 35.6828 56.8916 36.214V37.4785C56.8916 38.3871 56.4946 39.2503 55.8047 39.8416L54.7844 40.7162C54.3777 41.0648 54.0679 41.5124 53.8849 42.0157L52.8933 44.7424C52.7048 45.2608 52.658 45.8194 52.7535 46.3627C53.0241 47.9016 53.3848 50.0809 53.3848 50.6004V53.6715C53.3848 53.9606 53.3445 54.2483 53.2651 54.5263L52.6912 56.5356C52.6342 56.7352 52.5973 56.9401 52.5811 57.147L51.0897 76.1638C51.0614 76.525 50.9702 76.8785 50.8202 77.2084L49.3776 80.3822C49.1938 80.7867 49.0986 81.2258 49.0986 81.6701V87.118C49.0986 87.7013 49.2626 88.2729 49.5717 88.7675L50.7456 90.6458C50.9448 90.9645 51.0846 91.3166 51.1583 91.6851L52.0717 96.2529C52.1665 96.7268 52.3703 97.1721 52.6669 97.5535L54.5742 100.006C54.8181 100.319 55.1197 100.583 55.4627 100.783L58.8923 102.784C59.3683 103.062 59.9095 103.208 60.4606 103.208H65.8072C66.3489 103.208 66.8812 103.067 67.3514 102.798L69.3613 101.649L72.3533 99.5549C72.9384 99.1453 73.3649 98.5469 73.5611 97.8601L73.9389 96.5379C74.0042 96.3095 74.0953 96.0893 74.2107 95.8817L75.9854 92.6864L77.9336 89.5692L79.8818 86.8416C80.9153 85.5495 82.999 86.2803 82.999 87.9349V91.5749C82.999 91.7957 82.9749 92.0158 82.927 92.2314L81.5145 98.5882C81.4653 98.8099 81.4404 99.0363 81.4404 99.2633V102.548C81.4404 102.983 81.3491 103.413 81.1723 103.811L80.15 106.112C79.9732 106.51 79.8818 106.941 79.8818 107.376V121.899C79.8818 122.661 79.6022 123.397 79.0959 123.966L76.7646 126.59L74.4113 129.952C74.1645 130.304 73.9935 130.704 73.9091 131.126L73.2578 134.383L72.4785 137.89L71.914 139.772C71.5488 140.989 70.4803 141.862 69.2146 141.977L67.8074 142.105C67.2928 142.152 66.7748 142.07 66.2999 141.867L64.5578 141.12C64.3829 141.045 64.2153 140.955 64.057 140.849L60.0513 138.179C59.7652 137.988 59.4494 137.846 59.1169 137.758L52.9122 136.125C52.454 136.005 51.9743 135.991 51.5097 136.083L42.4736 137.89L36.611 139.615C36.1114 139.762 35.6567 140.032 35.2884 140.4L32.7324 142.956L27.666 149.581L22.6006 155.427L17.5352 161.271L11.6904 168.286L7.46938 173.21C7.16932 173.56 6.95076 173.972 6.82949 174.417L6.16513 176.853C5.95913 177.609 5.47593 178.259 4.8119 178.674L3.47016 179.512C2.98451 179.816 2.59202 180.247 2.3359 180.76L1.55859 182.314L0.343737 184.441C0.11848 184.835 0 185.282 0 185.736C0 187.103 1.05442 188.238 2.41755 188.339L7.94625 188.749C9.39774 188.856 10.5205 190.065 10.5205 191.521C10.5205 193.092 11.8221 194.351 13.3927 194.299L21.6425 194.024C22.0184 194.011 22.3888 193.931 22.7359 193.786L26.4821 192.225C26.7505 192.113 27.0019 191.964 27.229 191.783L30.4467 189.209C30.6706 189.03 30.8687 188.821 31.0354 188.588L31.6433 187.736C32.3134 186.798 32.4101 185.567 31.8946 184.536L31.2508 183.248C30.9502 182.646 30.4394 182.176 29.8152 181.927L28.8249 181.531C27.8008 181.121 27.3752 179.901 27.9224 178.943C28.2457 178.377 28.8475 178.028 29.4993 178.028H30.0106C30.5161 178.028 31.0115 177.886 31.4402 177.618L33.5112 176.324C33.7699 176.162 34.0034 175.963 34.2043 175.734L36.6289 172.962L39.7461 169.065L48.2207 160.591C48.5423 160.269 48.9305 160.022 49.3579 159.866L52.4798 158.731C52.8207 158.607 53.1807 158.544 53.5435 158.544H54.8279C55.1625 158.544 55.4948 158.598 55.8122 158.704L56.9739 159.091C57.4323 159.244 57.8488 159.501 58.1904 159.843L60.0088 161.661L64.7885 166.809C64.9781 167.014 65.1943 167.191 65.4313 167.338L73.0464 172.052C73.1871 172.139 73.3346 172.214 73.4874 172.278L77.5565 173.974C77.8068 174.078 78.0424 174.214 78.2574 174.38L82.6843 177.786C82.8933 177.947 83.081 178.133 83.2428 178.342L85.4718 181.206C85.6415 181.424 85.8396 181.619 86.0608 181.785L88.441 183.57C88.7084 183.771 89.0064 183.927 89.3235 184.033L91.4377 184.738C92.033 184.937 92.6747 184.952 93.2752 184.77C94.2298 184.48 95.4035 184.1 95.8584 183.873C96.4068 183.599 97.5982 182.099 98.3192 181.123C98.498 180.88 98.7066 180.662 98.9443 180.477L100.72 179.096C101.574 178.433 102.711 178.26 103.723 178.639L104.793 179.04C105.07 179.144 105.331 179.287 105.568 179.465L108.037 181.317C108.231 181.462 108.406 181.629 108.561 181.814L108.593 181.852C109.565 183.019 109.553 184.717 108.565 185.87L107.938 186.601L105.568 188.972C105.332 189.208 105.135 189.481 104.985 189.781L104.379 190.993C103.925 191.901 103.955 192.975 104.458 193.857C104.932 194.686 105.769 195.244 106.717 195.363L108.328 195.564L110.176 195.991C111.921 196.393 112.967 198.183 112.462 199.902L111.548 203.008C111.48 203.24 111.385 203.463 111.265 203.673L110.62 204.802C110.156 205.615 109.351 206.175 108.429 206.329L107.549 206.475L106.669 206.695C106.222 206.807 105.756 206.818 105.304 206.728L104.042 206.475L101.143 205.751C100.997 205.714 100.849 205.689 100.699 205.674L97.9235 205.396C97.3381 205.338 96.748 205.446 96.2218 205.709L95.9141 205.863C95.1337 206.253 94.553 206.953 94.3133 207.792L94.1921 208.216C94.009 208.857 94.0365 209.54 94.2705 210.164L94.6977 211.303C94.9447 211.962 95.4074 212.517 96.0106 212.879L98.9756 214.658L103.263 216.607L105.931 218.09C106.477 218.393 107.102 218.525 107.725 218.469L110.696 218.199C110.935 218.177 111.171 218.128 111.398 218.052L113.576 217.326C114.835 216.906 116.217 217.417 116.9 218.556L117.776 220.088C118.211 220.849 118.947 221.391 119.803 221.582L121.633 221.988C121.855 222.038 122.081 222.062 122.308 222.062H125.161C125.868 222.062 126.554 221.822 127.105 221.38L127.824 220.806C128.074 220.606 128.292 220.368 128.469 220.102L129.502 218.553C129.673 218.296 129.805 218.016 129.893 217.72L130.828 214.605C130.895 214.381 130.937 214.151 130.952 213.918L131.257 209.345C131.297 208.744 131.511 208.167 131.873 207.685L132.009 207.503C132.323 207.085 132.526 206.594 132.6 206.076L132.846 204.355C132.867 204.21 132.877 204.063 132.877 203.915V200.354C132.877 200.278 132.884 200.203 132.899 200.128C133.068 199.287 134.064 198.919 134.739 199.449L138.543 202.437C138.663 202.531 138.789 202.616 138.921 202.691L144.178 205.696L148.578 207.896C148.761 207.988 148.953 208.061 149.151 208.115L153.14 209.203L156.48 209.871C156.848 209.945 157.2 210.084 157.519 210.284L159.662 211.623C159.987 211.826 160.272 212.088 160.503 212.395L162.324 214.824C162.436 214.974 162.534 215.133 162.618 215.299L164.051 218.166L165.869 220.893C166.586 221.969 168.04 222.26 169.116 221.543C169.373 221.371 169.594 221.151 169.766 220.893L170.105 220.384C170.225 220.204 170.325 220.013 170.406 219.813L170.74 218.976C170.952 218.446 171.306 217.985 171.763 217.642L172.219 217.3C172.487 217.099 172.785 216.943 173.102 216.837L173.313 216.767C173.63 216.661 173.963 216.607 174.297 216.607H179.662C180.841 216.607 181.919 217.273 182.446 218.328L183.595 220.626C183.811 221.058 183.924 221.535 183.924 222.018V231.194C183.924 231.341 183.913 231.488 183.893 231.634L183.21 236.414C183.167 236.717 183.168 237.024 183.214 237.326C183.487 239.112 183.924 242.039 183.924 242.326C183.924 242.716 185.093 247.003 185.093 247.782C185.093 248.562 185.872 251.678 186.262 252.458C186.651 253.237 187.82 257.914 187.82 258.304C187.821 258.694 189.379 264.539 187.82 272.722C186.574 279.268 185.483 282.723 185.093 283.633L181.729 289.24C181.634 289.398 181.525 289.549 181.403 289.688L179.628 291.715C179.132 292.283 178.858 293.011 178.858 293.765V295.329C178.858 297.048 180.252 298.441 181.971 298.441H209.12C210.801 298.441 212.063 296.903 211.733 295.254C211.441 293.794 212.403 292.377 213.869 292.111L214.032 292.081C214.943 291.915 215.716 291.313 216.1 290.469L217.436 287.53L219.236 282.128C219.334 281.834 219.475 281.556 219.656 281.304L223.28 276.229L227.567 271.553L231.126 267.282C231.35 267.014 231.617 266.785 231.916 266.606L237.039 263.531C237.218 263.423 237.387 263.301 237.533 263.151C239.105 261.548 241.43 257.51 239.646 252.458C237.954 247.663 235.922 244.208 234.876 242.728C234.685 242.457 234.523 242.167 234.412 241.856L232.813 237.379C232.693 237.043 232.632 236.689 232.632 236.332V231.912C232.632 230.871 233.152 229.899 234.018 229.322L237.309 227.129L243.226 224.169C243.437 224.064 243.635 223.935 243.816 223.785L252.298 216.778C252.436 216.664 252.563 216.539 252.679 216.404L259.52 208.424L263.127 203.372C263.318 203.105 263.559 202.878 263.837 202.704C265.211 201.846 267.259 202.477 267.312 204.096C267.312 204.11 267.312 204.123 267.312 204.137V211.105C267.312 211.394 267.273 211.681 267.192 211.959C266.626 213.896 265.554 217.297 264.975 218.166C264.351 219.101 262.897 222.452 262.247 224.011C261.078 226.478 258.663 231.412 258.351 231.415C258.039 231.415 255.623 237.13 254.454 239.988L250.946 247.782C249.128 251.549 245.257 260.798 244.322 267.656C243.387 274.515 243.933 282.724 244.322 285.972V293.453C244.322 294.16 244.563 294.845 245.004 295.397L246.966 297.849C247.277 298.238 247.677 298.547 248.132 298.749L250.343 299.732C250.741 299.908 251.171 300 251.607 300H257.854C258.894 300 259.866 299.48 260.444 298.614L261.626 296.84C261.78 296.61 261.902 296.36 261.989 296.097L263.416 291.816L266.533 283.633L270.04 271.553C270.69 269.085 272.924 262.512 276.665 255.966C280.406 249.419 285.237 241.807 287.186 238.819C292.901 228.428 301.682 203.124 291.083 185.043C288.002 180.037 279.213 170.768 268.477 173.257C268.223 173.316 267.96 173.354 267.699 173.341C266.176 173.267 263.663 172.764 261.474 171.34C259.903 170.319 260.651 168.198 262.469 167.743L262.668 167.693C263.959 167.371 264.769 166.091 264.509 164.786C264.318 163.831 263.588 163.075 262.641 162.85L256.408 161.366C256.145 161.303 255.892 161.207 255.654 161.078C253.879 160.118 250.849 158.446 250.557 158.154C250.245 157.842 246.79 154.127 245.102 152.308C243.543 150.49 240.347 146.776 240.035 146.464C239.74 146.168 236.392 143.286 234.494 141.658C234.292 141.484 234.114 141.286 233.961 141.068C232.713 139.298 230.393 136.236 229.515 135.942C228.346 135.553 226.007 133.214 225.228 131.265C224.627 129.764 223.255 125.49 222.575 123.321C222.525 123.161 222.488 122.999 222.464 122.833L221.721 117.627L220.612 112.083C220.572 111.882 220.552 111.678 220.552 111.473V87.0833C220.552 86.9224 220.539 86.7618 220.514 86.6029L218.604 74.3709L215.876 65.0184L212.864 53.722C212.794 53.4604 212.759 53.1909 212.759 52.9201V46.9049C212.759 46.2663 212.562 45.643 212.196 45.1198L207.303 38.1307L206.126 36.0112C205.641 35.1392 205.604 34.0878 206.026 33.1838L207.937 29.0884C208.033 28.8822 208.152 28.6872 208.291 28.5068L211.023 24.9557C211.621 24.178 211.793 23.1538 211.483 22.2229L211.069 20.9791C210.914 20.5168 210.482 20.2049 209.995 20.2049C209.369 20.2049 208.862 19.698 208.862 19.0727V18.2763C208.862 17.7648 208.659 17.2742 208.297 16.9125L208.204 16.8186C207.645 16.2598 206.834 16.0352 206.067 16.2272L204.819 16.5394C204.41 16.6418 203.978 16.5943 203.601 16.4056C203.004 16.1066 202.627 15.496 202.627 14.8282V13.4383C202.627 12.5531 202.185 11.7264 201.448 11.2353L201.048 10.9688C200.573 10.652 199.972 10.5894 199.442 10.8015L198.978 10.987C197.881 11.426 196.74 10.4564 196.997 9.30255C197.106 8.81172 196.957 8.2992 196.601 7.94367L196.096 7.43825C195.579 6.9221 194.784 6.81065 194.146 7.16514C193.056 7.77053 191.717 6.98257 191.717 5.73601V5.60925C191.717 4.9957 191.388 4.42921 190.855 4.12489L190.155 3.72466C189.451 3.32254 188.573 3.39107 187.939 3.89751L187.798 4.01069C187.33 4.38543 186.696 4.47934 186.139 4.25655C185.506 4.0036 185.092 3.39113 185.092 2.71004V2.39002C185.092 1.40885 184.424 0.55358 183.472 0.315565L182.583 0.093174C181.288 -0.23054 179.931 0.307026 179.21 1.42952L173.775 9.88299ZM212.034 240.53C212.485 240.147 213.103 239.945 213.624 240.226C214.49 240.693 215.19 241.734 215.486 242.326C218.922 248.553 216.639 255.753 213.527 261.075C212.149 263.432 208.998 262.393 208.866 259.666C208.659 255.428 208.472 250.795 208.472 248.172C208.472 244.462 210.537 241.803 212.034 240.53Z" fill="#BDCFAA"/>
</svg>
